<svg width="395" height="397" viewBox="0 0 395 397" fill="none" xmlns="http://www.w3.org/2000/svg">
<path fill-rule="evenodd" clip-rule="evenodd" d="M23 282.261L28.8426 293.5C28.8762 293.245 28.9306 292.991 29.004 292.731C29.288 291.727 29.737 289.827 30.003 288.508C30.268 287.19 30.909 284.602 31.427 282.758C31.946 280.915 32.537 278.487 32.741 277.364C32.944 276.241 33.562 273.703 34.112 271.725C35.813 265.614 36.805 261.811 37.188 259.937C37.39 258.948 37.991 256.61 38.525 254.742C39.059 252.874 39.795 250.177 40.162 248.748C40.529 247.32 41.082 245.56 41.392 244.839C41.701 244.117 41.954 243.231 41.954 242.869C41.954 242.507 42.125 241.659 42.333 240.984C42.777 239.551 44.903 232.345 45.82 229.168C46.169 227.959 46.701 226.403 47.002 225.711C47.302 225.018 47.548 224.208 47.548 223.909C47.548 223.611 48.092 221.84 48.755 219.974C49.419 218.107 50.245 215.501 50.589 214.183C50.934 212.864 51.349 211.605 51.511 211.386C51.867 210.905 52.574 208.89 54.528 202.794C55.338 200.267 56.317 197.48 56.704 196.6C57.09 195.721 57.785 193.833 58.248 192.405C59.619 188.174 61.132 183.897 61.712 182.614C62.01 181.955 62.553 180.516 62.917 179.418C63.282 178.319 64.019 176.487 64.555 175.346C65.092 174.206 65.53 172.99 65.53 172.644C65.53 172.297 65.696 171.702 65.898 171.32C66.892 169.443 67.823 167.256 68.32 165.631C68.622 164.642 69.107 163.549 69.398 163.202C69.688 162.855 69.926 162.367 69.926 162.117C69.926 161.867 70.224 160.982 70.588 160.15C71.976 156.982 73.076 154.552 74.277 151.996C74.961 150.54 75.52 149.233 75.52 149.09C75.52 148.799 77.247 145.034 79.572 140.257C80.428 138.499 81.125 136.908 81.122 136.722C81.118 136.536 81.443 135.907 81.844 135.323C82.246 134.74 82.821 133.633 83.123 132.864C83.921 130.833 89.089 121.29 90.177 119.839C90.688 119.159 91.105 118.487 91.105 118.344C91.105 118.077 93.198 115.179 94.905 113.084C101.832 104.582 105.39 101.263 110.14 98.878L113.682 97.1L119.876 97.123C125.872 97.146 132.138 97.993 133.302 98.939C133.543 99.134 134.933 99.34 136.39 99.396C139.635 99.52 139.934 99.265 144.52 92.451C150.288 83.879 157.222 76.715 162.427 73.947C163.483 73.385 164.546 72.78 164.789 72.602C166.525 71.331 177.479 67.446 182.014 66.494C192.117 64.372 196.252 64.147 203.592 65.319C210.632 66.442 211.291 66.631 214.664 68.486C217.672 70.141 218.566 70.958 226.863 79.637L228.956 81.826L231.563 81.616C232.996 81.501 234.393 81.244 234.665 81.044C234.938 80.844 236.24 80.27 237.558 79.768C238.877 79.266 241.035 78.421 242.354 77.89C248.447 75.437 266.481 75.19 271.814 77.487C279.118 80.634 280.876 81.762 285.401 86.209C288.541 89.296 290.36 91.666 292.531 95.501C300.107 108.883 302.494 114.774 302.494 120.094V124.006L304.05 125.238C305.775 126.605 307.225 126.792 308.683 125.837C310.711 124.508 318.489 125.184 322.237 127.016C325.061 128.395 332.863 135.138 332.863 136.199C332.863 136.334 333.582 137.392 334.46 138.55C335.338 139.709 336.057 140.783 336.058 140.938C336.059 141.093 336.527 141.903 337.099 142.736C337.67 143.57 338.302 144.612 338.503 145.052C338.703 145.492 339.195 146.391 339.595 147.05C342.765 152.27 345.659 159.439 346.289 163.633C346.437 164.622 346.725 165.643 346.928 165.901C348.894 168.402 348.976 212.863 347.021 216.027C346.879 216.255 346.507 218.272 346.192 220.507C345.878 222.743 345.464 225.561 345.274 226.77C344.871 229.321 342.801 239.057 341.918 242.554C341.585 243.873 340.871 246.72 340.332 248.88C339.793 251.041 339.151 253.01 338.905 253.256C338.659 253.502 338.454 254.162 338.449 254.722C338.444 255.283 337.985 257 337.428 258.538C336.871 260.077 336.146 262.235 335.815 263.334C335.676 263.795 335.571 264.147 335.463 264.498C335.038 265.876 334.565 267.238 331.837 275.122C330.43 279.188 329.098 282.874 328.875 283.314C328.653 283.753 328.119 285.192 327.688 286.51C326.869 289.02 326.277 290.647 324.852 294.303C324.381 295.511 323.59 297.579 323.093 298.898C322.597 300.217 321.977 301.835 321.717 302.495C321.456 303.154 320.79 304.952 320.235 306.491C319.681 308.029 319.056 309.605 318.846 309.992C318.636 310.379 318.179 311.548 317.829 312.589C317.479 313.631 316.781 315.382 316.279 316.481C315.776 317.579 314.611 320.277 313.689 322.475C311.925 326.684 307.069 336.667 304.652 341.056C303.865 342.485 302.646 344.732 301.944 346.051C300.218 349.291 296.939 355.008 296.088 356.26C295.707 356.82 294.923 358.169 294.346 359.257C293.768 360.345 292.596 362.347 291.742 363.706C291.097 364.731 290.368 366.005 289.889 366.929L302.736 360.272C302.786 359.971 303.014 359.567 303.464 359.069C303.777 358.722 304.587 357.36 305.264 356.041C305.94 354.722 307.128 352.564 307.903 351.246C308.679 349.927 309.78 347.859 310.352 346.65C310.923 345.442 311.516 344.363 311.671 344.253C311.826 344.143 312.421 343.064 312.993 341.855C313.565 340.646 314.284 339.208 314.589 338.658C316.364 335.47 320.076 327.734 320.076 327.225C320.076 326.998 320.583 325.746 321.204 324.443C321.824 323.141 322.562 321.446 322.845 320.676C323.127 319.907 323.597 318.738 323.889 318.079C325.47 314.512 328.076 307.795 328.657 305.791C329.024 304.527 329.453 303.494 329.611 303.494C329.77 303.494 330.247 302.223 330.673 300.67C331.098 299.117 331.675 297.657 331.955 297.424C332.235 297.192 332.464 296.662 332.464 296.246C332.464 295.831 332.622 295.178 332.816 294.797C333.01 294.415 333.562 293.024 334.043 291.705C334.523 290.387 335.084 288.995 335.289 288.614C335.493 288.232 335.66 287.572 335.66 287.148C335.66 286.723 335.925 285.866 336.249 285.244C337.134 283.544 337.961 281.437 338.183 280.317C338.292 279.767 339.212 276.98 340.228 274.123C343.258 265.599 343.652 264.392 343.652 263.626C343.652 263.223 343.802 262.723 343.986 262.514C344.497 261.933 345.765 258.332 346.091 256.54C346.25 255.661 346.749 253.863 347.2 252.544C348.359 249.154 350.149 241.831 351.402 235.362C352.435 230.023 352.871 227.848 353.265 226.065C353.473 225.128 353.647 223.6 353.652 222.669C353.657 221.738 353.842 220.257 354.064 219.378C356.306 210.464 357.08 179.116 355.312 168.803C353.889 160.505 351.871 154.09 348.721 147.849C345.801 142.062 345.459 141.434 344.551 140.178C344.057 139.494 343.652 138.825 343.652 138.692C343.652 138.558 342.802 137.147 341.763 135.557C336.733 127.858 329.398 121.21 323.877 119.346C322.636 118.927 321.417 118.381 321.168 118.132C320.883 117.847 318.994 117.679 316.062 117.679C310.781 117.679 310.349 117.47 309.891 114.682C309.747 113.803 309.474 112.724 309.285 112.285C308.917 111.429 308.238 109.777 307.068 106.89C306.667 105.901 306.128 104.822 305.869 104.493C305.61 104.163 305.288 103.444 305.153 102.894C305.018 102.345 304.514 101.266 304.033 100.497C303.552 99.727 302.201 97.242 301.031 94.973C296.506 86.195 285.284 73.723 281.911 73.723C281.794 73.723 281.028 73.306 280.208 72.796C272.679 68.114 250.589 66.458 241.754 69.913C235.411 72.3942 233.276 73.4033 231.662 72.8614C230.572 72.4953 229.719 71.4217 227.968 69.616C223.464 64.971 219.034 61.336 217.879 61.336C217.684 61.336 216.47 60.796 215.181 60.137C213.892 59.478 212.568 58.938 212.239 58.938C211.91 58.938 211.089 58.768 210.414 58.561C206.058 57.221 192.21 56.443 188.928 57.355C188.116 57.58 186.318 57.934 184.932 58.139C180.387 58.815 178.432 59.206 177.419 59.642C175.756 60.358 172.324 61.336 171.473 61.336C171.033 61.336 170.578 61.489 170.461 61.677C170.345 61.865 169.121 62.417 167.741 62.903C164.432 64.068 159.757 66.372 157.375 68.011C156.321 68.735 155.276 69.328 155.051 69.328C154.826 69.328 154.641 69.469 154.641 69.641C154.641 69.814 154.147 70.25 153.542 70.611C150.877 72.204 142.807 81.23 138.523 87.41C135.745 91.417 135.539 91.489 130.39 90.252C125.287 89.026 113.624 89.245 109.686 90.641C104.106 92.619 98.1 97.282 92.304 104.135C91.534 105.045 90.351 106.441 89.673 107.239C87.803 109.44 85.111 113.203 85.111 113.617C85.111 113.82 84.844 114.207 84.518 114.477C84.192 114.748 83.366 115.984 82.682 117.223C81.999 118.463 80.892 120.467 80.223 121.675C78.787 124.268 73.134 135.623 71.568 139.058C70.967 140.377 69.924 142.624 69.249 144.053C68.574 145.482 67.707 147.504 67.321 148.548C66.936 149.592 66.486 150.447 66.322 150.447C66.158 150.447 65.927 150.851 65.809 151.346C65.483 152.718 64.555 155.084 64.103 155.695C63.881 155.995 63.463 156.96 63.173 157.839C62.884 158.718 62.283 160.247 61.837 161.236C60.977 163.144 60.914 163.299 59.492 167.03C58.989 168.349 58.434 169.598 58.258 169.807C58.082 170.016 57.938 170.513 57.938 170.912C57.938 171.31 57.779 171.948 57.584 172.33C57.389 172.712 56.829 174.013 56.34 175.222C55.85 176.431 55.29 177.732 55.095 178.113C54.901 178.495 54.741 179.057 54.741 179.362C54.741 179.668 54.268 180.974 53.69 182.265C53.111 183.556 52.489 185.152 52.308 185.811C51.833 187.534 48.89 195.846 48.573 196.359C48.426 196.596 48.038 197.827 47.711 199.093C47.383 200.359 46.788 202.115 46.39 202.994C45.991 203.873 45.441 205.402 45.167 206.391C44.894 207.38 44.339 208.998 43.933 209.987C43.528 210.976 43.013 212.415 42.789 213.184C42.364 214.64 41.118 218.506 40.407 220.576C40.18 221.236 39.704 222.854 39.349 224.173C38.994 225.492 38.514 227.02 38.282 227.569C38.051 228.119 37.542 229.859 37.151 231.437C36.761 233.015 36.314 234.513 36.157 234.766C36.001 235.019 35.613 236.246 35.295 237.492C34.978 238.738 34.557 240.387 34.36 241.156C34.164 241.925 33.711 243.543 33.353 244.752C32.535 247.517 30.519 254.98 29.736 258.139C29.409 259.458 28.985 261.166 28.794 261.935C28.602 262.704 28.257 263.873 28.027 264.532C27.796 265.192 27.319 267.17 26.966 268.928C26.614 270.686 26.078 272.664 25.775 273.324C25.473 273.983 25.134 275.152 25.022 275.921C24.3741 280.404 23.8963 281.978 23 282.261ZM191.804 88.891C193.671 88.645 195.286 88.357 195.392 88.251C195.656 87.987 199.502 88.527 199.996 88.898C200.216 89.063 200.913 89.321 201.546 89.473C203.2 89.869 206.608 92.145 208.741 94.278C213.388 98.925 214.474 104.277 213.354 117.011C212.873 122.484 211.171 128.526 208.383 134.662C205.847 140.242 198.743 146.374 192.603 148.281C189.358 149.289 186.897 149.056 179.417 147.031C168.978 144.205 164.147 130.435 168.558 116.081C168.997 114.652 169.566 112.674 169.824 111.685C170.081 110.696 170.816 108.763 171.458 107.389C172.099 106.014 172.623 104.807 172.623 104.705C172.623 104.07 175.96 99.547 177.718 97.798C178.872 96.651 179.816 95.609 179.816 95.484C179.816 93.562 187.207 89.497 191.804 88.891ZM205.221 102.717C204.396 100.557 200.764 97.121 198.863 96.702C196.642 96.212 191.898 96.026 191.655 96.419C191.526 96.627 190.862 96.909 190.178 97.045C187.105 97.66 179.4 107.333 177.403 113.084C175.041 119.885 174.048 130.7 175.512 133.663C177.338 137.358 178.837 138.67 182.403 139.701C183.947 140.147 185.624 140.679 186.129 140.884C191.178 142.93 200.59 135.573 202.778 127.869C203.153 126.55 203.64 125.133 203.862 124.72C205.556 121.555 206.511 106.097 205.221 102.717ZM257.264 104.909C258.871 104.725 260.295 104.467 260.428 104.334C260.933 103.828 265.368 104.121 266.816 104.755C271.093 106.629 272.556 107.528 274.641 109.564C280.196 114.988 281.201 119.811 279.701 133.863C279.298 137.636 278.373 141.769 277.733 142.654C277.574 142.874 277.144 144.153 276.777 145.496C275.157 151.425 271.24 156.817 265.93 160.425C264.831 161.171 263.842 161.913 263.731 162.072C263.621 162.232 262.721 162.663 261.733 163.03C260.745 163.397 259.459 163.953 258.875 164.265C257.62 164.936 252.467 165.033 251.298 164.407C250.861 164.174 249.14 163.625 247.473 163.189C241.399 161.598 238.001 158.842 235.258 153.283L233.562 149.847L233.616 143.254C233.655 138.347 233.84 136.098 234.339 134.463C234.707 133.254 235.17 131.635 235.368 130.866C236.33 127.117 237.46 123.658 237.79 123.454C237.992 123.329 238.158 122.97 238.158 122.656C238.158 121.543 241.591 116.374 244.073 113.749C245.458 112.284 247.257 110.36 248.069 109.472C250.305 107.029 253.772 105.309 257.264 104.909ZM271.438 117.839C270.35 115.784 267.435 113.32 264.998 112.394C261.109 110.917 256.347 111.99 253.537 114.976C247.016 121.906 244.814 125.246 243.719 129.867C243.459 130.966 243.091 132.225 242.902 132.664C241.479 135.97 240.803 146.732 241.87 149.102C243.423 152.552 246.128 155.242 248.046 155.242C248.516 155.242 248.999 155.402 249.12 155.597C249.24 155.793 249.925 156.049 250.642 156.166C251.358 156.283 252.753 156.592 253.742 156.853C255.406 157.291 255.72 157.242 257.938 156.197C260.955 154.775 266.529 150.408 266.529 149.466C266.529 149.336 266.983 148.545 267.538 147.707C268.092 146.869 268.879 145.018 269.287 143.593C269.694 142.168 270.214 140.655 270.442 140.23C272.371 136.637 273.07 120.921 271.438 117.839ZM120.639 119.644C122.307 119.433 124.392 119.12 125.271 118.949C129.077 118.206 134.493 120.526 138.732 124.713C141.204 127.155 142.207 128.96 143.665 133.591C145.103 138.159 143.418 153.185 140.795 159.188C140.279 160.369 139.856 161.568 139.856 161.852C139.856 162.136 139.492 163.147 139.048 164.1C135.997 170.634 129.313 176.771 123.239 178.613C117.032 180.496 107.116 177.899 102.638 173.218C96.581 166.885 95.633 159.382 99.105 145.252C102.298 132.254 111.982 120.738 120.639 119.644ZM132.463 159.601C138.674 142.456 137.409 130.477 129.052 127.301C124.965 125.747 120.469 126.536 117.543 129.321C115.005 131.735 111.485 135.541 111.485 135.87C111.485 136.043 111.066 136.742 110.554 137.422C109.42 138.93 108.288 141.182 108.288 141.931C108.288 142.234 108.04 142.881 107.737 143.368C107.434 143.854 106.881 145.691 106.508 147.45C106.134 149.208 105.646 151.456 105.423 152.445C103.326 161.727 105.876 168.162 112.435 170.136C113.78 170.541 115.433 171.042 116.108 171.249C121.472 172.895 129.793 166.969 132.463 159.601ZM304.773 155.657C306.404 155.474 307.847 155.216 307.98 155.083C310.682 152.381 322.686 159.142 325.49 164.946C329.415 173.07 327.906 189.116 322.066 201.348C320.439 204.755 319.495 205.905 315.013 209.935C309.875 214.554 303.085 216.595 298.069 215.029C297.096 214.725 295.491 214.257 294.501 213.989C283.509 211.013 278.306 199.385 281.714 185.412C282.322 182.916 283.613 178.36 284.346 176.119C284.939 174.308 287.63 168.763 288.078 168.429C288.226 168.319 288.726 167.689 289.191 167.03C293.568 160.819 299.89 156.205 304.773 155.657ZM186.578 162.793C187.804 162.595 189.526 162.274 190.406 162.08C192.61 161.593 204.577 161.575 207.988 162.054C209.526 162.269 212.134 162.61 213.782 162.811C216.655 163.161 217.495 163.346 221.974 164.616C223.073 164.928 224.781 165.402 225.77 165.67C226.759 165.938 227.928 166.364 228.368 166.617C228.807 166.87 230.066 167.409 231.165 167.815C232.264 168.22 233.915 169.064 234.833 169.689C235.752 170.314 236.611 170.826 236.742 170.826C237.742 170.826 242.953 176.414 245.592 180.316C246.818 182.128 247.963 183.699 248.137 183.806C248.51 184.037 250.949 189.042 251.938 191.605C252.319 192.594 252.816 193.853 253.043 194.403C253.503 195.52 253.911 197.24 254.718 201.474C255.02 203.055 255.396 204.559 255.555 204.816C255.714 205.073 255.958 208.313 256.096 212.015C256.269 216.631 256.266 218.388 257.141 219.2C257.747 219.764 258.775 219.873 260.576 220.167C265.625 220.992 267.677 221.544 270.433 222.816C271.811 223.452 273.205 223.973 273.53 223.973C273.856 223.973 274.122 224.153 274.122 224.373C274.122 224.592 274.293 224.772 274.501 224.772C276.852 224.772 287.309 235.941 287.309 238.451C287.309 238.742 287.552 239.335 287.85 239.768C288.381 240.539 289.427 243.565 289.85 245.551C289.967 246.101 290.425 248.169 290.868 250.147C292.271 256.414 292.023 261.052 289.747 271.126C288.458 276.831 282.924 284.127 276.519 288.565C274.184 290.183 267.603 293.503 266.731 293.503C266.358 293.503 265.576 293.751 264.993 294.054C261.828 295.696 250.794 296.382 241.754 295.499C231.769 294.524 230.735 294.401 228.967 293.973C227.29 293.567 223.487 292.959 218.777 292.342C217.678 292.199 216.557 291.942 216.286 291.773C216.014 291.604 214.845 291.293 213.688 291.083C209.46 290.315 205.935 289.558 203.592 288.914C202.274 288.552 200.294 288.109 199.194 287.93C198.093 287.751 195.576 287.146 193.6 286.585C191.623 286.024 188.567 285.258 186.809 284.882C185.051 284.507 183.433 284.062 183.213 283.892C182.993 283.723 181.914 283.397 180.815 283.169C176.01 282.171 175.019 281.924 174.342 281.557C173.946 281.342 172.184 280.858 170.426 280.481C168.667 280.103 165.618 279.283 163.649 278.657C161.679 278.031 159.667 277.519 159.177 277.519C158.686 277.519 158.174 277.34 158.038 277.12C157.902 276.9 157.358 276.72 156.829 276.72C156.3 276.72 155.277 276.469 154.555 276.162C153.833 275.855 151.534 275.127 149.447 274.544C140.517 272.052 139.077 271.634 136.46 270.769C129.263 268.392 127.479 267.825 125.558 267.305C124.398 266.991 122.779 266.402 121.962 265.996C121.144 265.59 119.576 265.022 118.478 264.734C117.379 264.447 116.21 263.999 115.88 263.74C115.55 263.481 114.382 262.945 113.283 262.549C112.184 262.152 110.913 261.493 110.46 261.082C110.006 260.672 109.493 260.337 109.319 260.337C106.242 260.337 97.139 248.552 95.893 242.954C94.314 235.864 93.994 231.287 94.726 226.278C95.985 217.67 96.421 215.856 98.123 212.124C98.439 211.432 98.697 210.778 98.697 210.672C98.697 208.355 105.669 200.581 109.686 198.418C110.565 197.945 111.554 197.397 111.884 197.2C112.911 196.587 117.903 194.753 120.241 194.129C124.948 192.875 135.77 193.375 139.057 195C141.777 196.344 143.266 197.085 144.486 196.773C145.973 196.393 147.061 194.448 149.493 190.122C149.89 189.417 150.502 188.518 150.854 188.124C151.206 187.731 152.396 186.151 153.498 184.612C158.611 177.478 165.987 171.243 173.822 167.43C175.471 166.628 177.131 165.805 177.513 165.602C177.895 165.398 178.42 165.232 178.681 165.232C178.941 165.232 180.323 164.764 181.751 164.193C183.18 163.621 185.352 162.992 186.578 162.793ZM318.334 168.029C316.938 165.833 314.538 163.991 311.913 163.102C306.84 161.383 303.647 162.717 297.66 169.058C292.258 174.779 288.465 185.706 288.499 195.453C288.521 201.729 291.705 205.533 297.898 206.678C298.557 206.8 299.452 207.145 299.885 207.444C302.302 209.114 308.584 206.123 313.055 201.174C314.704 199.349 316.527 195.425 317.687 191.206C317.959 190.217 318.473 188.598 318.829 187.609C319.344 186.178 319.477 184.181 319.477 177.819V169.827L318.334 168.029ZM211.584 170.419C210.046 170.225 207.978 169.886 206.989 169.664C204.81 169.178 194.23 169.182 192.004 169.671C191.125 169.864 189.776 170.123 189.007 170.248C186.818 170.602 182.254 172.036 181.998 172.45C181.871 172.656 181.416 172.824 180.986 172.824C180.556 172.824 179.893 172.981 179.511 173.174C173.858 176.02 172.888 176.594 170.139 178.722C163.891 183.558 153.513 196.168 152.089 200.655C151.709 201.85 147.939 206.139 146.939 206.513C145.427 207.078 142.906 206.459 141.504 205.178C140.79 204.526 139.963 203.993 139.665 203.993C139.367 203.993 139.064 203.858 138.99 203.693C137.277 199.838 118.618 200.835 113.851 205.035C113.504 205.341 112.99 205.591 112.71 205.591C110.411 205.591 104.92 214.261 103.621 219.943C99.252 239.044 105.497 252.568 120.875 257.31C122.194 257.716 123.492 258.222 123.761 258.433C124.029 258.644 124.839 258.969 125.559 259.155C128.228 259.842 129.734 260.297 132.464 261.24C137.291 262.906 149.899 266.77 153.547 267.7C154.814 268.023 156.042 268.406 156.277 268.552C156.512 268.697 158.353 269.233 160.368 269.744C162.383 270.254 165.381 271.057 167.029 271.528C170.909 272.636 178.424 274.689 180.216 275.13C180.985 275.319 182.571 275.762 183.74 276.114C184.91 276.467 186.708 276.937 187.736 277.16C191.868 278.056 192.923 278.312 195.8 279.115C197.449 279.576 199.696 280.111 200.795 280.305C201.894 280.498 204.681 281.114 206.989 281.673C209.297 282.232 212.174 282.895 213.383 283.146C214.591 283.398 216.48 283.836 217.578 284.12C218.677 284.405 221.554 284.929 223.972 285.286C226.39 285.643 229.716 286.194 231.365 286.51C239.406 288.053 255.336 288.648 259.736 287.571C262.423 286.913 268.096 284.734 268.959 284.029C269.306 283.745 269.733 283.513 269.909 283.513C272.297 283.513 280.545 274.522 281.64 270.726C281.862 269.957 282.32 268.429 282.658 267.33C284.263 262.111 284.428 255.481 283.072 250.746C282.726 249.537 282.304 247.829 282.133 246.95C281.367 242.991 278.85 238.405 275.72 235.262C271.333 230.856 265.588 228.541 256.174 227.385C252.916 226.985 251.079 226.796 250.019 225.789C248.607 224.448 248.573 221.657 248.391 214.982C248.224 208.837 247.982 206.205 247.347 203.593C246.892 201.725 246.345 199.388 246.131 198.399C245.916 197.41 245.294 195.683 244.747 194.563C244.2 193.442 243.752 192.338 243.752 192.111C243.752 191.284 241.851 188.247 238.254 183.325C234.913 178.753 229.22 174.786 223.772 173.233C222.783 172.951 221.255 172.469 220.376 172.161C218.511 171.508 215.512 170.914 211.584 170.419Z" fill="#51280B"/>
<path fill-rule="evenodd" clip-rule="evenodd" d="M216.18 7.71199C224.651 8.28899 230.932 8.95999 233.841 9.59899C235.313 9.92199 237.37 10.187 238.412 10.187C240.22 10.187 243.529 10.679 246.549 11.397C250.534 12.345 254.883 13.561 256 14.041C256.693 14.339 257.468 14.582 257.724 14.582C258.144 14.582 259.744 15.025 263.732 16.245C264.501 16.48 265.67 16.906 266.33 17.191C266.989 17.476 268.517 18.018 269.726 18.396C270.935 18.773 272.374 19.317 272.923 19.603C273.473 19.889 275.81 21.037 278.118 22.154C282.211 24.134 283.706 24.942 284.112 25.394C284.222 25.517 284.883 25.848 285.582 26.13C286.28 26.412 287.162 26.987 287.542 27.406C287.921 27.826 288.359 28.169 288.515 28.169C288.671 28.169 290.126 29.078 291.75 30.19C293.373 31.301 295.241 32.55 295.9 32.963C296.559 33.377 297.307 33.898 297.562 34.121C297.816 34.343 298.985 35.159 300.159 35.932C301.333 36.706 303.013 37.879 303.892 38.538C304.771 39.198 306.21 40.22 307.089 40.808C308.929 42.041 313.019 45.407 313.216 45.851C313.289 46.016 313.599 46.151 313.903 46.151C314.208 46.151 314.856 46.69 315.344 47.35C315.831 48.009 316.451 48.548 316.721 48.548C316.991 48.548 317.272 48.7 317.345 48.886C317.419 49.072 319.007 50.448 320.875 51.944C332.224 61.036 340.506 68.864 347.298 76.918C349.245 79.227 351.082 81.403 351.38 81.754C352.869 83.509 357.644 90.12 358.295 91.329C358.703 92.087 359.442 93.274 359.936 93.966C360.431 94.659 360.835 95.409 360.835 95.635C360.835 95.86 361.092 96.301 361.406 96.615C361.72 96.929 362.419 98.066 362.959 99.141C363.499 100.216 364.474 102.085 365.126 103.294C365.778 104.502 366.697 106.208 367.169 107.084C367.642 107.96 368.028 108.904 368.028 109.182C368.028 109.46 368.208 109.687 368.428 109.687C368.647 109.687 368.827 109.901 368.827 110.163C368.827 110.424 369.345 111.728 369.978 113.06C372.421 118.203 373.197 120.001 374.047 122.492C374.531 123.911 375.06 125.252 375.222 125.472C375.383 125.691 375.927 127.22 376.429 128.868C376.932 130.516 377.487 132.135 377.664 132.465C377.842 132.794 378.35 134.502 378.794 136.261C379.238 138.019 379.968 140.896 380.416 142.654C382.508 150.869 383.191 153.947 383.605 157.04C383.781 158.359 384.347 162.315 384.862 165.831C385.97 173.393 386.287 207.473 385.323 215.382C384.208 224.538 383.904 227.12 383.604 229.967C383.307 232.791 382.937 235.011 381.408 243.154C381.057 245.022 380.617 247.45 380.43 248.548C380.243 249.647 379.911 250.996 379.692 251.545C379.473 252.095 378.977 254.073 378.59 255.941C378.202 257.809 377.724 259.662 377.527 260.058C377.33 260.454 376.812 262.162 376.377 263.854C375.941 265.546 375.339 267.47 375.039 268.129C374.739 268.788 374.139 270.416 373.706 271.745C373.273 273.075 372.538 274.952 372.072 275.916C371.606 276.881 371.225 277.883 371.225 278.143C371.225 278.845 369.665 282.244 369.215 282.522C369.002 282.653 368.827 283.113 368.827 283.542C368.827 283.972 368.674 284.636 368.486 285.017C368.001 286.005 367.001 288.243 366.211 290.107C363.513 296.472 358.643 306.294 356.995 308.695C356.311 309.691 355.639 310.861 355.501 311.295C355.363 311.729 354.798 312.572 354.246 313.166C353.694 313.761 353.243 314.358 353.243 314.493C353.243 314.713 351.159 317.88 350.357 318.878C350.181 319.098 349.507 319.997 348.86 320.876C348.213 321.755 347.309 322.924 346.852 323.474C346.394 324.023 344.918 325.821 343.572 327.47C338.303 333.923 332.337 339.906 325.917 345.177C325.063 345.877 323.693 347.035 322.871 347.749C322.05 348.464 321.184 349.048 320.946 349.048C320.709 349.048 320.371 349.289 320.196 349.584C320.02 349.88 319.337 350.46 318.677 350.874C318.018 351.288 317.389 351.748 317.279 351.896C317.036 352.222 313.022 355.168 310.286 357.029C309.187 357.776 307.415 358.983 306.349 359.711C303.584 361.601 301.578 361.155 303.464 359.069C303.777 358.722 304.587 357.36 305.264 356.041C305.94 354.722 307.128 352.564 307.903 351.246C308.679 349.927 309.78 347.859 310.352 346.65C310.923 345.442 311.516 344.363 311.671 344.253C311.826 344.143 312.421 343.064 312.993 341.855C313.565 340.646 314.284 339.208 314.589 338.658C316.364 335.47 320.076 327.734 320.076 327.225C320.076 326.998 320.583 325.746 321.204 324.443C321.824 323.141 322.562 321.446 322.845 320.676C323.127 319.907 323.597 318.738 323.889 318.079C325.47 314.512 328.076 307.795 328.657 305.791C329.024 304.527 329.453 303.494 329.611 303.494C329.77 303.494 330.247 302.223 330.673 300.67C331.098 299.117 331.675 297.657 331.955 297.424C332.235 297.192 332.464 296.662 332.464 296.246C332.464 295.831 332.622 295.178 332.816 294.797C333.01 294.415 333.562 293.024 334.043 291.705C334.523 290.387 335.084 288.995 335.289 288.614C335.493 288.232 335.66 287.572 335.66 287.148C335.66 286.723 335.925 285.866 336.249 285.244C337.134 283.544 337.961 281.437 338.183 280.317C338.292 279.767 339.212 276.98 340.228 274.123C343.258 265.599 343.652 264.392 343.652 263.626C343.652 263.223 343.802 262.723 343.986 262.514C344.497 261.933 345.765 258.332 346.091 256.54C346.25 255.661 346.749 253.863 347.2 252.544C348.359 249.154 350.149 241.831 351.402 235.362C352.435 230.023 352.871 227.848 353.265 226.065C353.473 225.128 353.647 223.6 353.652 222.669C353.657 221.738 353.842 220.257 354.064 219.378C356.306 210.464 357.08 179.116 355.312 168.803C353.889 160.505 351.871 154.09 348.721 147.849C345.801 142.062 345.459 141.434 344.551 140.178C344.057 139.494 343.652 138.825 343.652 138.692C343.652 138.558 342.802 137.147 341.763 135.557C336.733 127.858 329.398 121.21 323.877 119.346C322.636 118.927 321.417 118.381 321.168 118.132C320.883 117.847 318.994 117.679 316.062 117.679C310.781 117.679 310.349 117.47 309.891 114.682C309.747 113.803 309.474 112.724 309.285 112.285C308.917 111.429 308.238 109.777 307.068 106.89C306.667 105.901 306.128 104.822 305.869 104.493C305.61 104.163 305.288 103.444 305.153 102.894C305.018 102.345 304.514 101.266 304.033 100.497C303.552 99.727 302.201 97.242 301.031 94.973C296.506 86.195 285.284 73.723 281.911 73.723C281.794 73.723 281.028 73.306 280.208 72.796C272.679 68.114 250.589 66.458 241.754 69.913C231.126 74.07 232.312 74.095 227.968 69.616C223.464 64.971 219.034 61.336 217.879 61.336C217.684 61.336 216.47 60.796 215.181 60.137C213.892 59.478 212.568 58.938 212.239 58.938C211.91 58.938 211.089 58.768 210.414 58.561C206.058 57.221 192.21 56.443 188.928 57.355C188.116 57.58 186.318 57.934 184.932 58.139C180.387 58.815 178.432 59.206 177.419 59.642C175.756 60.358 172.324 61.336 171.473 61.336C171.033 61.336 170.578 61.489 170.461 61.677C170.345 61.865 169.121 62.417 167.741 62.903C164.432 64.068 159.757 66.372 157.375 68.011C156.321 68.735 155.276 69.328 155.051 69.328C154.826 69.328 154.641 69.469 154.641 69.641C154.641 69.814 154.147 70.25 153.542 70.611C150.877 72.204 142.807 81.23 138.523 87.41C135.745 91.417 135.539 91.489 130.39 90.252C125.287 89.026 113.624 89.245 109.686 90.641C104.106 92.619 98.1 97.282 92.304 104.135C91.534 105.045 90.351 106.441 89.673 107.239C87.803 109.44 85.111 113.203 85.111 113.617C85.111 113.82 84.844 114.207 84.518 114.477C84.192 114.748 83.366 115.984 82.682 117.223C81.999 118.463 80.892 120.467 80.223 121.675C78.787 124.268 73.134 135.623 71.568 139.058C70.967 140.377 69.924 142.624 69.249 144.053C68.574 145.482 67.707 147.504 67.321 148.548C66.936 149.592 66.486 150.447 66.322 150.447C66.158 150.447 65.927 150.851 65.809 151.346C65.483 152.718 64.555 155.084 64.103 155.695C63.881 155.995 63.463 156.96 63.173 157.839C62.884 158.718 62.283 160.247 61.837 161.236C60.977 163.144 60.914 163.299 59.492 167.03C58.989 168.349 58.434 169.598 58.258 169.807C58.082 170.016 57.938 170.513 57.938 170.912C57.938 171.31 57.779 171.948 57.584 172.33C57.389 172.712 56.829 174.013 56.34 175.222C55.85 176.431 55.29 177.732 55.095 178.113C54.901 178.495 54.741 179.057 54.741 179.362C54.741 179.668 54.268 180.974 53.69 182.265C53.111 183.556 52.489 185.152 52.308 185.811C51.833 187.534 48.89 195.846 48.573 196.359C48.426 196.596 48.038 197.827 47.711 199.093C47.383 200.359 46.788 202.115 46.39 202.994C45.991 203.873 45.441 205.402 45.167 206.391C44.894 207.38 44.339 208.998 43.933 209.987C43.528 210.976 43.013 212.415 42.789 213.184C42.364 214.64 41.118 218.506 40.407 220.576C40.18 221.236 39.704 222.854 39.349 224.173C38.994 225.492 38.514 227.02 38.282 227.569C38.051 228.119 37.542 229.859 37.151 231.437C36.761 233.015 36.314 234.513 36.157 234.766C36.001 235.019 35.613 236.246 35.295 237.492C34.978 238.738 34.557 240.387 34.36 241.156C34.164 241.925 33.711 243.543 33.353 244.752C32.535 247.517 30.519 254.98 29.736 258.139C29.409 259.458 28.985 261.166 28.794 261.935C28.602 262.704 28.257 263.873 28.027 264.532C27.796 265.192 27.319 267.17 26.966 268.928C26.614 270.686 26.078 272.664 25.775 273.324C25.473 273.983 25.134 275.152 25.022 275.921C24.304 280.888 23.795 282.284 22.694 282.309C22.272 282.318 20.389 278.42 19.531 275.758C19.113 274.459 18.616 273.201 18.427 272.961C18.238 272.721 17.781 271.535 17.41 270.327C17.04 269.118 16.563 267.812 16.352 267.425C15.916 266.627 15.264 264.682 13.975 260.337C13.486 258.688 12.928 257.169 12.735 256.96C12.542 256.751 12.384 256.199 12.384 255.733C12.384 255.266 12.135 254.088 11.832 253.115C10.177 247.808 9.18697 243.893 9.18697 242.658C9.18697 242.107 8.91797 240.893 8.58897 239.96C7.90197 238.015 7.23397 234.599 6.75197 230.566C6.56797 229.028 6.13897 225.881 5.79797 223.573C4.42597 214.282 4.84097 186.107 6.39297 183.207C6.61097 182.8 6.78897 181.162 6.78897 179.568C6.78897 176.683 6.99797 175.124 8.19797 169.028C8.54397 167.27 8.98497 164.572 9.17797 163.034C9.75797 158.404 10.352 154.961 10.741 153.976C10.943 153.463 11.416 151.515 11.792 149.647C12.168 147.779 12.732 145.352 13.046 144.253C15.347 136.199 17.937 127.678 18.572 126.071C18.876 125.302 19.492 123.642 19.941 122.384C20.74 120.144 20.972 119.603 21.912 117.785C22.166 117.293 22.374 116.602 22.374 116.248C22.374 115.894 22.702 115.128 23.103 114.544C23.504 113.961 24.077 112.854 24.376 112.085C25.105 110.208 28.779 102.963 30.76 99.498C31.639 97.959 32.475 96.461 32.617 96.168C33.19 94.983 37.937 87.847 38.718 86.996C39.179 86.494 39.556 85.965 39.556 85.822C39.556 85.679 40.366 84.531 41.355 83.272C42.344 82.014 43.153 80.892 43.153 80.781C43.153 80.669 43.647 80.046 44.252 79.397C44.856 78.747 46.07 77.265 46.949 76.103C49.673 72.503 62.411 60.021 64.625 58.782C65.007 58.568 65.593 58.07 65.925 57.676C66.258 57.282 67.105 56.551 67.808 56.051C69.716 54.694 75.291 50.406 75.52 50.119C75.63 49.981 76.375 49.436 77.176 48.909C77.977 48.381 80.627 46.513 83.065 44.759C85.504 43.004 88.106 41.206 88.848 40.763C96.017 36.481 98.216 35.111 98.923 34.489C99.377 34.09 99.883 33.763 100.048 33.763C100.213 33.763 101.869 32.819 103.73 31.665C111.446 26.879 121.045 22.194 126.47 20.567C127.349 20.303 128.607 19.857 129.267 19.575C131.13 18.78 132.742 18.253 134.189 17.966C134.918 17.822 135.997 17.452 136.586 17.145C137.176 16.837 137.975 16.584 138.363 16.583C138.751 16.582 139.38 16.402 139.762 16.184C140.143 15.966 141.804 15.438 143.453 15.01C145.101 14.583 146.989 14.052 147.648 13.832C148.308 13.611 150.466 13.068 152.444 12.625C154.422 12.182 156.759 11.638 157.638 11.417C158.517 11.196 160.585 10.823 162.234 10.589C163.882 10.354 166.13 9.98699 167.229 9.77299C172.966 8.65699 181.41 7.79399 187.036 7.74999C189.768 7.72799 193.532 7.57199 195.401 7.40299C199.324 7.04699 208.404 7.18299 216.18 7.71199Z" fill="#F9EBDF"/>
<path fill-rule="evenodd" clip-rule="evenodd" d="M198.863 96.702C200.764 97.121 204.396 100.557 205.221 102.717C206.511 106.097 205.556 121.555 203.862 124.72C203.64 125.133 203.153 126.55 202.778 127.869C200.59 135.573 191.178 142.93 186.129 140.884C185.624 140.679 183.947 140.147 182.403 139.701C178.837 138.67 177.338 137.358 175.512 133.663C174.048 130.7 175.041 119.885 177.403 113.084C179.4 107.333 187.105 97.66 190.178 97.045C190.862 96.909 191.526 96.627 191.655 96.419C191.898 96.026 196.642 96.212 198.863 96.702ZM264.998 112.394C267.435 113.32 270.35 115.784 271.438 117.839C273.07 120.921 272.371 136.637 270.442 140.23C270.214 140.655 269.694 142.168 269.287 143.593C268.879 145.018 268.092 146.869 267.538 147.707C266.983 148.545 266.529 149.336 266.529 149.466C266.529 150.408 260.955 154.775 257.938 156.197C255.72 157.242 255.406 157.291 253.742 156.853C252.753 156.592 251.358 156.283 250.642 156.166C249.925 156.049 249.24 155.793 249.12 155.597C248.999 155.402 248.516 155.242 248.046 155.242C246.128 155.242 243.423 152.552 241.87 149.102C240.803 146.732 241.479 135.97 242.902 132.664C243.091 132.225 243.459 130.966 243.719 129.867C244.814 125.246 247.016 121.906 253.537 114.976C256.347 111.99 261.109 110.917 264.998 112.394ZM129.052 127.301C137.409 130.477 138.674 142.456 132.463 159.601C129.793 166.969 121.472 172.895 116.108 171.249C115.433 171.042 113.78 170.541 112.435 170.136C105.876 168.162 103.326 161.727 105.423 152.445C105.646 151.456 106.134 149.208 106.508 147.45C106.881 145.691 107.434 143.854 107.737 143.368C108.04 142.881 108.288 142.234 108.288 141.931C108.288 141.182 109.42 138.93 110.554 137.422C111.066 136.742 111.485 136.043 111.485 135.87C111.485 135.541 115.005 131.735 117.543 129.321C120.469 126.536 124.965 125.747 129.052 127.301ZM311.913 163.102C314.538 163.991 316.938 165.833 318.334 168.029L319.477 169.827V177.819C319.477 184.181 319.344 186.178 318.829 187.609C318.473 188.598 317.959 190.217 317.687 191.206C316.527 195.425 314.704 199.349 313.055 201.174C308.584 206.123 302.302 209.114 299.885 207.444C299.452 207.145 298.557 206.8 297.898 206.678C291.705 205.533 288.521 201.729 288.499 195.453C288.465 185.706 292.258 174.779 297.66 169.058C303.647 162.717 306.84 161.383 311.913 163.102ZM206.989 169.664C207.978 169.886 210.046 170.225 211.584 170.419C215.512 170.914 218.511 171.508 220.376 172.161C221.255 172.469 222.783 172.951 223.772 173.233C229.22 174.786 234.913 178.753 238.254 183.325C241.851 188.247 243.752 191.284 243.752 192.111C243.752 192.338 244.2 193.442 244.747 194.563C245.294 195.683 245.916 197.41 246.131 198.399C246.345 199.388 246.892 201.725 247.347 203.593C247.982 206.205 248.224 208.837 248.391 214.982C248.71 226.667 248.575 226.452 256.174 227.385C265.588 228.541 271.333 230.856 275.72 235.262C278.85 238.405 281.367 242.991 282.133 246.95C282.304 247.829 282.726 249.537 283.072 250.746C284.428 255.481 284.263 262.111 282.658 267.33C282.32 268.429 281.862 269.957 281.64 270.726C280.545 274.522 272.297 283.513 269.909 283.513C269.733 283.513 269.306 283.745 268.959 284.029C268.096 284.734 262.423 286.913 259.736 287.571C255.336 288.648 239.406 288.053 231.365 286.51C229.716 286.194 226.39 285.643 223.972 285.286C221.554 284.929 218.677 284.405 217.578 284.12C216.48 283.836 214.591 283.398 213.383 283.146C212.174 282.895 209.297 282.232 206.989 281.673C204.681 281.114 201.894 280.498 200.795 280.305C199.696 280.111 197.449 279.576 195.8 279.115C192.923 278.312 191.868 278.056 187.736 277.16C186.708 276.937 184.91 276.467 183.74 276.114C182.571 275.762 180.985 275.319 180.216 275.13C178.424 274.689 170.909 272.636 167.029 271.528C165.381 271.057 162.383 270.254 160.368 269.744C158.353 269.233 156.512 268.697 156.277 268.552C156.042 268.406 154.814 268.023 153.547 267.7C149.899 266.77 137.291 262.906 132.464 261.24C129.734 260.297 128.228 259.842 125.559 259.155C124.839 258.969 124.029 258.644 123.761 258.433C123.492 258.222 122.194 257.716 120.875 257.31C105.497 252.568 99.252 239.044 103.621 219.943C104.92 214.261 110.411 205.591 112.71 205.591C112.99 205.591 113.504 205.341 113.851 205.035C118.618 200.835 137.277 199.838 138.99 203.693C139.064 203.858 139.367 203.993 139.665 203.993C139.963 203.993 140.79 204.526 141.504 205.178C142.906 206.459 145.427 207.078 146.939 206.513C147.939 206.139 151.709 201.85 152.089 200.655C153.513 196.168 163.891 183.558 170.139 178.722C172.888 176.594 173.858 176.02 179.511 173.174C179.893 172.981 180.556 172.824 180.986 172.824C181.416 172.824 181.871 172.656 181.998 172.45C182.254 172.036 186.818 170.602 189.007 170.248C189.776 170.123 191.125 169.864 192.004 169.671C194.23 169.182 204.81 169.178 206.989 169.664Z" fill="#FFC4BB"/>
<path fill-rule="evenodd" clip-rule="evenodd" d="M203.592 65.319C210.632 66.442 211.291 66.631 214.664 68.486C217.672 70.141 218.566 70.958 226.863 79.637L228.956 81.826L231.563 81.616C232.996 81.501 234.393 81.244 234.665 81.044C234.938 80.844 236.24 80.27 237.558 79.768C238.877 79.266 241.035 78.421 242.354 77.89C248.447 75.437 266.481 75.19 271.814 77.487C279.118 80.634 280.876 81.762 285.401 86.209C288.541 89.296 290.36 91.666 292.531 95.501C300.107 108.883 302.494 114.774 302.494 120.094V124.006L304.05 125.238C305.775 126.605 307.225 126.792 308.683 125.837C310.711 124.508 318.489 125.184 322.237 127.016C325.061 128.395 332.863 135.138 332.863 136.199C332.863 136.334 333.582 137.392 334.46 138.55C335.338 139.709 336.057 140.783 336.058 140.938C336.059 141.093 336.527 141.903 337.099 142.736C337.67 143.57 338.302 144.612 338.503 145.052C338.703 145.492 339.195 146.391 339.595 147.05C342.765 152.27 345.659 159.439 346.289 163.633C346.437 164.622 346.725 165.643 346.928 165.901C348.894 168.402 348.976 212.863 347.021 216.027C346.879 216.255 346.507 218.272 346.192 220.507C345.878 222.743 345.464 225.561 345.274 226.77C344.871 229.321 342.801 239.057 341.918 242.554C341.585 243.873 340.871 246.72 340.332 248.88C339.793 251.041 339.151 253.01 338.905 253.256C338.659 253.502 338.454 254.162 338.449 254.722C338.444 255.283 337.985 257 337.428 258.538C336.871 260.077 336.146 262.235 335.815 263.334C335.133 265.605 335.26 265.229 331.837 275.122C330.43 279.188 329.098 282.874 328.875 283.314C328.653 283.753 328.119 285.192 327.688 286.51C326.869 289.02 326.277 290.647 324.852 294.303C324.381 295.511 323.59 297.579 323.093 298.898C322.597 300.217 321.977 301.835 321.717 302.495C321.456 303.154 320.79 304.952 320.235 306.491C319.681 308.029 319.056 309.605 318.846 309.992C318.636 310.379 318.179 311.548 317.829 312.589C317.479 313.631 316.781 315.382 316.279 316.481C315.776 317.579 314.611 320.277 313.689 322.475C311.925 326.684 307.069 336.667 304.652 341.056C303.865 342.485 302.646 344.732 301.944 346.051C300.218 349.291 296.939 355.008 296.088 356.26C295.707 356.82 294.923 358.169 294.346 359.257C293.768 360.345 292.596 362.347 291.742 363.706C290.887 365.065 289.883 366.863 289.511 367.702C288.762 369.391 288.095 369.764 277.605 374.36C276.773 374.724 275.888 375.022 275.638 375.022C275.388 375.022 274.9 375.263 274.553 375.557C274.206 375.851 272.843 376.415 271.524 376.81C270.206 377.205 268.677 377.757 268.128 378.038C267.578 378.318 266.05 378.847 264.731 379.213C263.413 379.579 261.974 380.037 261.534 380.231C260.537 380.67 257.648 381.443 255.54 381.833C254.661 381.996 252.234 382.522 250.146 383.002C248.058 383.482 245.361 384.028 244.152 384.214C238.767 385.045 232.882 385.87 229.566 386.259C225.108 386.782 193.437 391.47 190.006 390.87C188.687 390.639 185.271 390.242 182.414 389.987C172.505 389.103 170.812 388.923 168.128 388.47C162.254 387.477 159.906 387.129 156.839 386.794C155.081 386.602 152.653 386.256 151.445 386.024C150.236 385.793 147.718 385.33 145.85 384.996C140.117 383.971 131.543 376.841 128.268 375.628C127.499 375.343 125.79 374.789 124.472 374.397C123.153 374.004 121.141 373.266 120.001 372.754C118.861 372.243 117.643 371.825 117.295 371.825C116.947 371.825 115.453 371.262 113.974 370.573C112.495 369.884 110.116 368.792 108.687 368.146C107.259 367.501 105.461 366.633 104.691 366.218C103.922 365.804 102.484 365.061 101.495 364.568C100.505 364.076 97.951 362.63 95.818 361.355C93.686 360.081 91.865 359.038 91.773 359.038C91.609 359.038 86.462 355.915 84.372 354.548C83.79 354.167 82.953 353.674 82.513 353.453C82.074 353.232 80.781 352.375 79.64 351.549C78.499 350.723 76.431 349.253 75.044 348.283C73.658 347.313 71.871 345.965 71.074 345.286C70.277 344.608 68.874 343.424 67.958 342.654C61.638 337.348 48.775 324.433 47.427 322.039C47.25 321.725 46.71 321.035 46.228 320.507C43.647 317.678 37.798 309.814 34.466 304.692C33.251 302.824 31.834 300.661 31.317 299.885C28.991 296.39 28.446 294.704 29.004 292.731C29.288 291.727 29.737 289.827 30.003 288.508C30.268 287.19 30.909 284.602 31.427 282.758C31.946 280.915 32.537 278.487 32.741 277.364C32.944 276.241 33.562 273.703 34.112 271.725C35.813 265.614 36.805 261.811 37.188 259.937C37.39 258.948 37.991 256.61 38.525 254.742C39.059 252.874 39.795 250.177 40.162 248.748C40.529 247.32 41.082 245.56 41.392 244.839C41.701 244.117 41.954 243.231 41.954 242.869C41.954 242.507 42.125 241.659 42.333 240.984C42.777 239.551 44.903 232.345 45.82 229.168C46.169 227.959 46.701 226.403 47.002 225.711C47.302 225.018 47.548 224.208 47.548 223.909C47.548 223.611 48.092 221.84 48.755 219.974C49.419 218.107 50.245 215.501 50.589 214.183C50.934 212.864 51.349 211.605 51.511 211.386C51.867 210.905 52.574 208.89 54.528 202.794C55.338 200.267 56.317 197.48 56.704 196.6C57.09 195.721 57.785 193.833 58.248 192.405C59.619 188.174 61.132 183.897 61.712 182.614C62.01 181.955 62.553 180.516 62.917 179.418C63.282 178.319 64.019 176.487 64.555 175.346C65.092 174.206 65.53 172.99 65.53 172.644C65.53 172.297 65.696 171.702 65.898 171.32C66.892 169.443 67.823 167.256 68.32 165.631C68.622 164.642 69.107 163.549 69.398 163.202C69.688 162.855 69.926 162.367 69.926 162.117C69.926 161.867 70.224 160.982 70.588 160.15C71.976 156.982 73.076 154.552 74.277 151.996C74.961 150.54 75.52 149.233 75.52 149.09C75.52 148.799 77.247 145.034 79.572 140.257C80.428 138.499 81.125 136.908 81.122 136.722C81.118 136.536 81.443 135.907 81.844 135.323C82.246 134.74 82.821 133.633 83.123 132.864C83.921 130.833 89.089 121.29 90.177 119.839C90.688 119.159 91.105 118.487 91.105 118.344C91.105 118.077 93.198 115.179 94.905 113.084C101.832 104.582 105.39 101.263 110.14 98.878L113.682 97.1L119.876 97.123C125.872 97.146 132.138 97.993 133.302 98.939C133.543 99.134 134.933 99.34 136.39 99.396C139.635 99.52 139.934 99.265 144.52 92.451C150.288 83.879 157.222 76.715 162.427 73.947C163.483 73.385 164.546 72.78 164.789 72.602C166.525 71.331 177.479 67.446 182.014 66.494C192.117 64.372 196.252 64.147 203.592 65.319ZM195.392 88.251C195.286 88.357 193.671 88.645 191.804 88.891C187.207 89.497 179.816 93.562 179.816 95.484C179.816 95.609 178.872 96.651 177.718 97.798C175.96 99.547 172.623 104.07 172.623 104.705C172.623 104.807 172.099 106.014 171.458 107.389C170.816 108.763 170.081 110.696 169.824 111.685C169.566 112.674 168.997 114.652 168.558 116.081C164.147 130.435 168.978 144.205 179.417 147.031C186.897 149.056 189.358 149.289 192.603 148.281C198.743 146.374 205.847 140.242 208.383 134.662C211.171 128.526 212.873 122.484 213.354 117.011C214.474 104.277 213.388 98.925 208.741 94.278C206.608 92.145 203.2 89.869 201.546 89.473C200.913 89.321 200.216 89.063 199.996 88.898C199.502 88.527 195.656 87.987 195.392 88.251ZM260.428 104.334C260.295 104.467 258.871 104.725 257.264 104.909C253.772 105.309 250.305 107.029 248.069 109.472C247.257 110.36 245.458 112.284 244.073 113.749C241.591 116.374 238.158 121.543 238.158 122.656C238.158 122.97 237.992 123.329 237.79 123.454C237.46 123.658 236.33 127.117 235.368 130.866C235.17 131.635 234.707 133.254 234.339 134.463C233.84 136.098 233.655 138.347 233.616 143.254L233.562 149.847L235.258 153.283C238.001 158.842 241.399 161.598 247.473 163.189C249.14 163.625 250.861 164.174 251.298 164.407C252.467 165.033 257.62 164.936 258.875 164.265C259.459 163.953 260.745 163.397 261.733 163.03C262.721 162.663 263.621 162.232 263.731 162.072C263.842 161.913 264.831 161.171 265.93 160.425C271.24 156.817 275.157 151.425 276.777 145.496C277.144 144.153 277.574 142.874 277.733 142.654C278.373 141.769 279.298 137.636 279.701 133.863C281.201 119.811 280.196 114.988 274.641 109.564C272.556 107.528 271.093 106.629 266.816 104.755C265.368 104.121 260.933 103.828 260.428 104.334ZM125.271 118.949C124.392 119.12 122.307 119.433 120.639 119.644C111.982 120.738 102.298 132.254 99.105 145.252C95.633 159.382 96.581 166.885 102.638 173.218C107.116 177.899 117.032 180.496 123.239 178.613C129.313 176.771 135.997 170.634 139.048 164.1C139.492 163.147 139.856 162.136 139.856 161.852C139.856 161.568 140.279 160.369 140.795 159.188C143.418 153.185 145.103 138.159 143.665 133.591C142.207 128.96 141.204 127.155 138.732 124.713C134.493 120.526 129.077 118.206 125.271 118.949ZM307.98 155.083C307.847 155.216 306.404 155.474 304.773 155.657C299.89 156.205 293.568 160.819 289.191 167.03C288.726 167.689 288.226 168.319 288.078 168.429C287.63 168.763 284.939 174.308 284.346 176.119C283.613 178.36 282.322 182.916 281.714 185.412C278.306 199.385 283.509 211.013 294.501 213.989C295.491 214.257 297.096 214.725 298.069 215.029C303.085 216.595 309.875 214.554 315.013 209.935C319.495 205.905 320.439 204.755 322.066 201.348C327.906 189.116 329.415 173.07 325.49 164.946C322.686 159.142 310.682 152.381 307.98 155.083ZM190.406 162.08C189.526 162.274 187.804 162.595 186.578 162.793C185.352 162.992 183.18 163.621 181.751 164.193C180.323 164.764 178.941 165.232 178.681 165.232C178.42 165.232 177.895 165.398 177.513 165.602C177.131 165.805 175.471 166.628 173.822 167.43C165.987 171.243 158.611 177.478 153.498 184.612C152.396 186.151 151.206 187.731 150.854 188.124C150.502 188.518 149.89 189.417 149.493 190.122C145.067 197.995 145.093 197.983 139.057 195C135.77 193.375 124.948 192.875 120.241 194.129C117.903 194.753 112.911 196.587 111.884 197.2C111.554 197.397 110.565 197.945 109.686 198.418C105.669 200.581 98.697 208.355 98.697 210.672C98.697 210.778 98.439 211.432 98.123 212.124C96.421 215.856 95.985 217.67 94.726 226.278C93.994 231.287 94.314 235.864 95.893 242.954C97.139 248.552 106.242 260.337 109.319 260.337C109.493 260.337 110.006 260.672 110.46 261.082C110.913 261.493 112.184 262.152 113.283 262.549C114.382 262.945 115.55 263.481 115.88 263.74C116.21 263.999 117.379 264.447 118.478 264.734C119.576 265.022 121.144 265.59 121.962 265.996C122.779 266.402 124.398 266.991 125.558 267.305C127.479 267.825 129.263 268.392 136.46 270.769C139.077 271.634 140.517 272.052 149.447 274.544C151.534 275.127 153.833 275.855 154.555 276.162C155.277 276.469 156.3 276.72 156.829 276.72C157.358 276.72 157.902 276.9 158.038 277.12C158.174 277.34 158.686 277.519 159.177 277.519C159.667 277.519 161.679 278.031 163.649 278.657C165.618 279.283 168.667 280.103 170.426 280.481C172.184 280.858 173.946 281.342 174.342 281.557C175.019 281.924 176.01 282.171 180.815 283.169C181.914 283.397 182.993 283.723 183.213 283.892C183.433 284.062 185.051 284.507 186.809 284.882C188.567 285.258 191.623 286.024 193.6 286.585C195.576 287.146 198.093 287.751 199.194 287.93C200.294 288.109 202.274 288.552 203.592 288.914C205.935 289.558 209.46 290.315 213.688 291.083C214.845 291.293 216.014 291.604 216.286 291.773C216.557 291.942 217.678 292.199 218.777 292.342C223.487 292.959 227.29 293.567 228.967 293.973C230.735 294.401 231.769 294.524 241.754 295.499C250.794 296.382 261.828 295.696 264.993 294.054C265.576 293.751 266.358 293.503 266.731 293.503C267.603 293.503 274.184 290.183 276.519 288.565C282.924 284.127 288.458 276.831 289.747 271.126C292.023 261.052 292.271 256.414 290.868 250.147C290.425 248.169 289.967 246.101 289.85 245.551C289.427 243.565 288.381 240.539 287.85 239.768C287.552 239.335 287.309 238.742 287.309 238.451C287.309 235.941 276.852 224.772 274.501 224.772C274.293 224.772 274.122 224.592 274.122 224.373C274.122 224.153 273.856 223.973 273.53 223.973C273.205 223.973 271.811 223.452 270.433 222.816C267.677 221.544 265.625 220.992 260.576 220.167C256.178 219.449 256.389 219.832 256.096 212.015C255.958 208.313 255.714 205.073 255.555 204.816C255.396 204.559 255.02 203.055 254.718 201.474C253.911 197.24 253.503 195.52 253.043 194.403C252.816 193.853 252.319 192.594 251.938 191.605C250.949 189.042 248.51 184.037 248.137 183.806C247.963 183.699 246.818 182.128 245.592 180.316C242.953 176.414 237.742 170.826 236.742 170.826C236.611 170.826 235.752 170.314 234.833 169.689C233.915 169.064 232.264 168.22 231.165 167.815C230.066 167.409 228.807 166.87 228.368 166.617C227.928 166.364 226.759 165.938 225.77 165.67C224.781 165.402 223.073 164.928 221.974 164.616C217.495 163.346 216.655 163.161 213.782 162.811C212.134 162.61 209.526 162.269 207.988 162.054C204.577 161.575 192.61 161.593 190.406 162.08Z" fill="#B5A99D"/>
<path fill-rule="evenodd" clip-rule="evenodd" d="M197.5 8.4968C92.8518 8.4968 8 93.553 8 198.497C8 303.441 92.8518 388.497 197.5 388.497C302.148 388.497 387 303.441 387 198.497C387 93.553 302.148 8.4968 197.5 8.4968ZM0 198.497C0 89.1542 88.414 0.496796 197.5 0.496796C306.586 0.496796 395 89.1542 395 198.497C395 307.839 306.586 396.497 197.5 396.497C88.414 396.497 0 307.839 0 198.497Z" fill="#51280B"/>
</svg>
