<svg width="203" height="213" viewBox="0 0 203 213" fill="none" xmlns="http://www.w3.org/2000/svg">
<path fill-rule="evenodd" clip-rule="evenodd" d="M52.253 34.2597C57.044 39.5571 56.631 47.7331 51.331 52.5213C35.723 66.6206 25.873 87.1801 25.873 110.14C25.873 152.861 59.925 187.141 101.5 187.141C143.076 187.141 177.128 152.861 177.128 110.14C177.128 87.1801 167.277 66.6206 151.67 52.5213C146.37 47.7331 145.957 39.5571 150.747 34.2597C155.538 28.9623 163.718 28.5494 169.019 33.3376C189.879 52.1826 203 79.6379 203 110.14C203 166.754 157.75 213 101.5 213C45.251 213 0 166.754 0 110.14C0 79.6379 13.121 52.1826 33.982 33.3376C39.282 28.5494 47.462 28.9623 52.253 34.2597Z" fill="#262338"/>
<path fill-rule="evenodd" clip-rule="evenodd" d="M96.926 0.0164778C99.396 0.217387 101.339 2.21375 101.476 4.69215L107.579 114.71L122.46 54.4438C122.99 52.2976 124.872 50.7604 127.078 50.6728C129.284 50.5851 131.282 51.9681 131.98 54.0655L137.793 71.5325H156.041C158.78 71.5325 161 73.7565 161 76.5C161 79.2435 158.78 81.4675 156.041 81.4675H134.218C132.083 81.4675 130.188 80.0993 129.513 78.0709L127.981 73.4673L109.275 149.225C108.685 151.612 106.441 153.208 103.997 152.978C101.553 152.749 99.644 150.763 99.508 148.308L93.575 41.3463L80.537 100.423C80.073 102.525 78.31 104.088 76.171 104.295C74.031 104.502 72.002 103.305 71.145 101.331L62.523 81.4675H42.96C40.221 81.4675 38 79.2435 38 76.5C38 73.7565 40.221 71.5325 42.96 71.5325H65.774C67.749 71.5325 69.535 72.7056 70.323 74.5193L74.149 83.3341L91.682 3.8955C92.217 1.47179 94.456 -0.184431 96.926 0.0164778Z" fill="#00AEED"/>
</svg>
